<?xml version="1.0" encoding="UTF-8"?>
<svg xmlns="http://www.w3.org/2000/svg" version="1.1" viewBox="0 0 1336.3 1347.2">
  <defs>
    <style>
      .cls-1 {
        fill-rule: evenodd;
      }

      .cls-1,
      .cls-2 {
        fill: #12c6da;
      }

      .cls-3 {
        /* fill: #484782; */
        fill: #fff;
      }
    </style>
  </defs>
  <!-- Generator: Adobe Illustrator 28.7.2, SVG Export Plug-In . SVG Version: 1.2.0 Build 154)  -->
  <g>
    <g id="Layer_1">
      <g>
        <g>
          <path class="cls-3"
            d="M622.9,605l-.2-.4c-.4-.8-.7-1.6-1.1-2.5,2.7.4,5.5.7,8.2,1.1-2.2.7-4.5,1.3-7,1.8M673.3,645.5c-3.7.1-7.4.2-11.1.2s-2.3,0-3.5,0c-6.6-3.5-12.7-8.1-18.3-13.9,1.4-.4,2.7-.9,4-1.4,8.5-3.1,15.6-7,21.5-11.5,5.8,4.5,12.9,8.4,21.5,11.5,1.3.5,2.6.9,4,1.4-5.5,5.7-11.5,10.3-18,13.7ZM730.6,638.4c-2.2.5-4.4.9-6.5,1.3.4-.6.8-1.1,1.2-1.7,1.7.1,3.5.3,5.3.4ZM606.5,638c.7,1.1,1.5,2.2,2.3,3.2-4.6-.8-9.1-1.6-13.6-2.6,3.9-.1,7.7-.4,11.3-.7ZM708.9,605c-3.2-.7-6.2-1.6-9-2.5,3.6-.5,7.2-1,10.8-1.6-.5,1.3-1,2.5-1.6,3.7l-.2.4ZM662.2,0c89.1,0,169.9,36.1,228.3,94.6,58.4,58.4,94.6,139.1,94.6,228.3s-36.1,169.9-94.6,228.3c-19.6,19.6-41.7,36.7-65.8,50.7l-18.8,2.4c-26.4,3.4-48,4.7-65.7,4.2,1.9-5,3.5-10.3,5-15.9,44.5-13.7,84.4-38.1,116.5-70.2,51.1-51.1,82.6-121.6,82.6-199.5s-31.6-148.5-82.6-199.5c-51.1-51.1-121.6-82.6-199.5-82.6s-148.5,31.6-199.5,82.6c-51.1,51.1-82.6,121.6-82.6,199.5s31.6,148.5,82.6,199.5c34,34,76.7,59.4,124.4,72.5,1.3,4.7,2.8,9.3,4.4,13.6-17.7.5-39.3-.8-65.7-4.2l-28.1-3.6c-23.3-13.8-44.7-30.5-63.8-49.6-58.4-58.4-94.6-139.1-94.6-228.3s36.1-169.9,94.6-228.3C492.4,36.1,573.1,0,662.2,0Z" />
          <path class="cls-3"
            d="M864,224.8c-167.3,30.1-148.9,141-132.7,238.5,38.5,232.1-117.1,243.6-207.4,156,112,14.3,145.3-7.8,150.1-45.5,3.4-26.3-2.6-62.1-8.8-99.8-43.6-246,105.9-304.3,198.8-249.3" />
          <path class="cls-2"
            d="M467.7,224.8c167.3,30.1,148.9,141,132.7,238.5-38.5,232.1,117.1,243.6,207.4,156-112,14.3-145.3-7.8-150.1-45.5-3.4-26.3,2.6-62.1,8.8-99.8,43.6-246-105.9-304.3-198.8-249.3" />
          <path class="cls-1"
            d="M725.5,178.7c0-32.9-26.7-59.6-59.6-59.6s-59.6,26.7-59.6,59.6,26.7,59.6,59.6,59.6,59.6-26.7,59.6-59.6" />
        </g>
        <g>
          <path class="cls-3" d="M211.8,860.4l-92,242.7h-27.8L0,860.4h26.4l79.5,216.3,80.2-216.3h25.7Z" />
          <path class="cls-3" d="M522.2,860.4v20.1h-67.4v222.5h-24.3v-222.5h-67.7v-20.1h159.4Z" />
          <path class="cls-3"
            d="M929.8,863.6v239.6h-24.3v-191.3l-85.4,191.3h-17.7l-85.4-190.6v190.6h-24.3v-239.6h25.7l92.7,207.6,92.7-207.6h26Z" />
          <path class="cls-3"
            d="M1121.4,917.5c10.4-18.9,24.7-33.6,42.7-44.1,18.1-10.5,38.2-15.8,60.4-15.8s50.3,6.4,69.6,19.3c19.3,12.8,33.4,31,42.2,54.3h-28.5c-6.9-16.4-17.5-29.3-31.8-38.5-14.2-9.3-31.4-13.9-51.6-13.9s-33.9,4.2-48.1,12.5c-14.2,8.3-25.4,20.3-33.5,35.9-8.1,15.6-12.2,33.7-12.2,54.3s4,38.7,12.2,54.2c8.1,15.5,19.3,27.4,33.5,35.8,14.2,8.3,30.3,12.5,48.1,12.5s37.3-4.6,51.6-13.7c14.2-9.1,24.8-21.8,31.8-38h28.5c-8.8,23.1-22.9,41.1-42.4,53.8-19.4,12.7-42.6,19.1-69.4,19.1s-42.4-5.3-60.4-15.8c-18.1-10.5-32.3-25.2-42.7-43.9-10.4-18.7-15.6-40-15.6-63.9s5.2-45.2,15.6-64.1Z" />
        </g>
        <g>
          <path class="cls-3"
            d="M29.3,1256.1c0,3.3.6,6.4,1.9,9.3,1.3,2.9,3,5.5,5.2,7.7,2.2,2.2,4.7,3.9,7.7,5.2,2.9,1.3,6.1,1.9,9.3,1.9h23.1c3.2,0,5.3-.7,6.3-2.1,1-1.4,1.5-3.9,1.5-7.4v-53.4h22.4c7.2,0,12.3,1.9,15.3,5.6,3.1,3.7,4.6,9.3,4.6,16.7v31.2c0,1.8.1,3.2.4,4.4.3,1.2.8,2.1,1.6,2.9s1.8,1.3,3.2,1.7c1.4.4,3.1.5,5.4.5v14.6c-8.9,0-15.4-1.7-19.3-5.2-3.9-3.5-5.9-9.1-5.9-17v-31.2c0-3.2-.3-5.6-1-7.1-.6-1.6-2.1-2.4-4.3-2.4h-7.8v40.7c0,7.9-1.6,13.5-4.8,17-3.2,3.5-8.7,5.2-16.5,5.2h-24.1c-5.3,0-10.3-1-15-3.1-4.7-2.1-8.8-4.8-12.3-8.4-3.5-3.5-6.3-7.6-8.4-12.3-2.1-4.7-3.1-9.7-3.1-15v-12.3h14.6v12.3ZM54.9,1305.6c1.4-1.4,2.9-2,4.7-2s3.3.7,4.7,2,2,2.9,2,4.7-.7,3.3-2,4.7c-1.4,1.4-2.9,2-4.7,2s-3.3-.7-4.7-2c-1.4-1.4-2-2.9-2-4.7s.7-3.3,2-4.7ZM70.8,1305.6c1.4-1.4,2.9-2,4.7-2s3.3.7,4.7,2c1.4,1.4,2,2.9,2,4.7s-.7,3.3-2,4.7-2.9,2-4.7,2-3.3-.7-4.7-2c-1.4-1.4-2-2.9-2-4.7s.7-3.3,2-4.7Z" />
          <path class="cls-3"
            d="M131.4,1282.3c1.4-1.4,3.3-2,5.7-2h35.2v14.6h-35.2c-2.5,0-4.4-.7-5.7-2.1-1.4-1.4-2-3.1-2-5.1s.7-4,2-5.4Z" />
          <path class="cls-3"
            d="M166.7,1282.3c1.4-1.4,3.3-2,5.7-2h35.2v14.6h-35.2c-2.5,0-4.4-.7-5.7-2.1-1.4-1.4-2-3.1-2-5.1s.7-4,2-5.4Z" />
          <path class="cls-3"
            d="M231.1,1219.1v6.9c6.8-5.8,14.9-8.6,24.1-8.6s10.3,1,15,3.1c4.7,2.1,8.8,4.8,12.3,8.4s6.3,7.6,8.4,12.3c2.1,4.7,3.1,9.7,3.1,15v16.6c0,7.9-1.6,13.5-4.8,17-3.2,3.5-8.7,5.2-16.5,5.2h-65c-2.5,0-4.4-.7-5.7-2.1-1.4-1.4-2-3.1-2-5.1s.7-4,2-5.4,3.3-2,5.7-2h8.8v-61.2h14.6ZM279.4,1256.1c0-3.3-.6-6.4-1.9-9.3-1.3-2.9-3-5.5-5.2-7.7-2.2-2.2-4.7-3.9-7.7-5.2-2.9-1.3-6.1-1.9-9.3-1.9s-6.2.6-9.2,1.8-5.5,2.8-7.7,4.8-3.9,4.3-5.3,7c-1.4,2.6-2,5.5-2,8.5v26.3h48.3v-24.1ZM250.6,1198.9c1.4-1.4,2.9-2,4.7-2s3.3.7,4.7,2c1.4,1.4,2,2.9,2,4.7s-.7,3.3-2,4.7c-1.4,1.4-2.9,2-4.7,2s-3.3-.7-4.7-2c-1.4-1.4-2-2.9-2-4.7s.7-3.3,2-4.7Z" />
          <path class="cls-3" d="M328,1175.1v119.8h-14.6v-119.8h14.6Z" />
          <path class="cls-3"
            d="M319.7,1324.3c3.3,0,6.4-.6,9.3-1.9,2.9-1.3,5.5-3,7.7-5.2s3.9-4.7,5.2-7.7c1.3-2.9,1.9-6.1,1.9-9.3v-82.8h14.6v62.9h10.6v14.6h-10.6v5.3c0,5.3-1,10.3-3.1,15-2.1,4.7-4.8,8.8-8.4,12.3-3.5,3.5-7.6,6.3-12.3,8.4-4.7,2.1-9.7,3.1-15,3.1h-5.3v-14.6h5.3Z" />
          <path class="cls-3"
            d="M363.3,1282.3c1.4-1.4,3.3-2,5.7-2s5.4-.7,6.8-2c1.4-1.4,2-3.4,2-6.1v-54.8h14.6v54.8c0,2.8.8,4.8,2.3,6.1,1.5,1.2,4.3,1.9,8.3,2v14.6c-8,0-13.9-1.4-17.8-4.1-3.8,2.7-9.2,4.1-16.2,4.1s-4.4-.7-5.7-2.1c-1.4-1.4-2-3.1-2-5.1s.7-4,2-5.4ZM373.4,1198.9c1.4-1.4,2.9-2,4.7-2s3.3.7,4.7,2c1.4,1.4,2,2.9,2,4.7s-.7,3.3-2,4.7-2.9,2-4.7,2-3.3-.7-4.7-2c-1.4-1.4-2-2.9-2-4.7s.7-3.3,2-4.7ZM389.3,1198.9c1.4-1.4,2.9-2,4.7-2s3.3.7,4.7,2c1.4,1.4,2,2.9,2,4.7s-.7,3.3-2,4.7c-1.4,1.4-2.9,2-4.7,2s-3.3-.7-4.7-2-2-2.9-2-4.7.7-3.3,2-4.7Z" />
          <path class="cls-3"
            d="M397.4,1282.3c1.4-1.4,3.3-2,5.7-2h35.2v14.6h-35.2c-2.5,0-4.4-.7-5.7-2.1-1.4-1.4-2-3.1-2-5.1s.7-4,2-5.4Z" />
          <path class="cls-3"
            d="M509.5,1289.5c-3.1,3.6-8.2,5.4-15.3,5.4h-55.9c-2.5,0-4.4-.7-5.7-2.1-1.4-1.4-2-3.1-2-5.1s.7-4,2-5.4,3.3-2,5.7-2h16c-2.2-3.3-4-7-5.3-11.2-1.3-4.2-1.9-8.5-1.9-13s.9-10.3,2.6-15c1.8-4.7,4.1-8.8,7.1-12.3,3-3.5,6.6-6.3,10.7-8.4,4.1-2.1,8.5-3.1,13-3.1s8.9,1,13,3.1c4.1,2.1,7.7,4.8,10.7,8.4,3,3.5,5.4,7.6,7.1,12.3,1.8,4.7,2.6,9.7,2.6,15v16.6c0,7.6-1.5,13.2-4.6,16.8ZM498.3,1277.9c.8-1.6,1.1-4,1.1-7.1v-14.6c0-3.3-.5-6.4-1.5-9.3-1-2.9-2.4-5.5-4.1-7.7-1.7-2.2-3.7-3.9-6-5.2-2.3-1.3-4.7-1.9-7.3-1.9s-5,.6-7.3,1.9c-2.3,1.3-4.3,3-6,5.2-1.7,2.2-3.1,4.7-4.1,7.7-1,2.9-1.5,6.1-1.5,9.3s.5,6.4,1.5,9.3c1,2.9,2.4,5.5,4.1,7.7,1.7,2.2,3.7,3.9,6,5.2,2.3,1.3,4.7,1.9,7.3,1.9h12.9c2.5,0,4.1-.8,4.8-2.4ZM476,1198.9c1.4-1.4,2.9-2,4.7-2s3.3.7,4.7,2c1.4,1.4,2,2.9,2,4.7s-.7,3.3-2,4.7c-1.4,1.4-2.9,2-4.7,2s-3.3-.7-4.7-2c-1.4-1.4-2-2.9-2-4.7s.7-3.3,2-4.7Z" />
          <path class="cls-3"
            d="M556.8,1330.5h-32.8v-8.3h5.3c-.9-1.9-1.4-3.9-1.4-6.2,0-3.9,1.4-7.3,4.2-10.1,2.8-2.9,6.4-4.3,10.8-4.3s6.5,1.2,9,3.7c2.5,2.5,4.2,5.4,5.1,8.8h-7c-1.5-2.6-3.6-3.9-6.2-3.9s-4.1.6-5.2,1.8c-1.1,1.2-1.7,2.5-1.7,4.1s.5,3.1,1.5,4.3c1,1.2,2.5,1.9,4.5,1.9h13.9v8.3ZM524.7,1280.3h35.2c2.2,0,3.7-.8,4.3-2.4.6-1.6,1-4,1-7.1v-95.7h14.6v97.6c0,7.6-1.5,13.2-4.6,16.8-3.1,3.6-8.2,5.4-15.3,5.4h-35.2v-14.6ZM548.1,1272.3h-14.6v-86.7h14.6v86.7Z" />
          <path class="cls-3" d="M613.9,1175.1v119.8h-14.6v-119.8h14.6Z" />
          <path class="cls-3"
            d="M687.6,1296.4c-2.3,1-4.3,2.3-6,4.1s-3.1,3.7-4.1,6c-1,2.3-1.5,4.7-1.5,7.3s.6,5,1.8,7.3,2.8,4.3,4.8,6c2,1.7,4.4,3.1,7.1,4.1,2.8,1,5.7,1.5,8.7,1.5v14.6c-5.2,0-10-.9-14.5-2.6-4.5-1.8-8.4-4.1-11.7-7.1s-6-6.5-7.9-10.7-2.9-8.5-2.9-13,.9-8.9,2.6-13c1.8-4.1,4.1-7.7,7.1-10.7,3-3,6.5-5.4,10.7-7.1s8.5-2.6,13-2.6h28.2c-1.3-2.8-2.3-6-3-9.4-.7-3.5-1.4-7-2-10.6-.6-3.6-1.4-7.1-2.3-10.5s-2.1-6.4-3.5-9.1-3.4-4.8-5.8-6.3c-2.4-1.6-5.5-2.4-9.3-2.4s-8.6,2.1-12.1,6.3c-3.5,4.2-5.8,9.6-7,16h-14.6c.7-5.3,2-10.2,4-14.6s4.4-8.4,7.4-11.7,6.4-6,10.2-7.8c3.8-1.9,7.8-2.8,12.1-2.8,6.9,0,12.5,1.2,16.6,3.5s7.4,5.4,9.8,9.2c2.4,3.8,4.2,8,5.3,12.8,1.1,4.8,2.2,9.6,3.3,14.5s2.5,9.5,4.1,13.9c1.6,4.4,4,8.2,7.1,11.4v12.3h-48.5c-2.6,0-5,.5-7.3,1.5ZM695.6,1310.2c1.4-1.4,2.9-2,4.7-2s3.3.7,4.7,2c1.4,1.4,2,2.9,2,4.7s-.7,3.3-2,4.7c-1.4,1.4-2.9,2-4.7,2s-3.3-.7-4.7-2-2-2.9-2-4.7.7-3.3,2-4.7Z" />
          <path class="cls-3"
            d="M811.3,1278.4c1.5,1.1,4.3,1.7,8.4,1.9v14.6c-3.9,0-7.4-.3-10.5-1-3.1-.6-5.5-1.4-7.1-2.4-1.5.9-3.4,1.7-5.7,2.4-2.3.6-4.7,1-7.1,1h-35.2v-14.6h35.2c2.2,0,3.7-.8,4.3-2.4.6-1.6,1-4,1-7.1v-95.7h14.6v97.6c0,2.7.7,4.6,2.2,5.7ZM777.4,1272.3h-14.6v-86.7h14.6v86.7Z" />
          <path class="cls-3"
            d="M814,1282.3c1.4-1.4,3.3-2,5.7-2h35.2v14.6h-35.2c-2.5,0-4.4-.7-5.7-2.1-1.4-1.4-2-3.1-2-5.1s.7-4,2-5.4Z" />
          <path class="cls-3"
            d="M849.2,1282.3c1.4-1.4,3.3-2,5.7-2h35.2v14.6h-35.2c-2.5,0-4.4-.7-5.7-2.1-1.4-1.4-2-3.1-2-5.1s.7-4,2-5.4Z" />
          <path class="cls-3"
            d="M890.2,1294.9c-2.5,0-4.4-.7-5.7-2.1-1.4-1.4-2-3.1-2-5.1s.7-4,2-5.4,3.3-2,5.7-2h24.3c-1.6-2.9-3.8-5.4-6.4-7.5-2.6-2.1-5.7-3.4-9.1-4.1v-12.5c0-5.3.9-10.3,2.6-15,1.8-4.7,4.1-8.8,7.1-12.3,3-3.5,6.6-6.3,10.7-8.4,4.1-2.1,8.5-3.1,13-3.1s8.9,1,13,3.1c4.1,2.1,7.7,4.8,10.7,8.4,3,3.5,5.4,7.6,7.1,12.3,1.8,4.7,2.6,9.7,2.6,15v12.7c-7.9,1.6-13.2,5.5-16,11.5h24.8v14.6h-84.6ZM923.8,1267.5c3,3.8,5.3,8.1,6.8,12.8h3.7c1.4-4.9,3.6-9.2,6.6-12.9s6.5-6.6,10.5-9v-2.3c0-3.3-.5-6.4-1.5-9.3-1-2.9-2.4-5.5-4.1-7.7-1.7-2.2-3.7-3.9-6-5.2-2.3-1.3-4.7-1.9-7.3-1.9s-5,.6-7.3,1.9c-2.3,1.3-4.3,3-6,5.2-1.7,2.2-3.1,4.7-4.1,7.7-1,2.9-1.5,6.1-1.5,9.3v2.3c3.8,2.2,7.1,5.3,10.1,9.1Z" />
          <path class="cls-3"
            d="M969.1,1282.3c1.4-1.4,3.3-2,5.7-2s5.7-.8,7-2.5c1.2-1.6,1.8-4,1.8-7v-95.7h14.6v97.6c0,7.5-1.9,13.1-5.6,16.7-3.7,3.6-9.7,5.5-17.9,5.5s-4.4-.7-5.7-2.1c-1.4-1.4-2-3.1-2-5.1s.7-4,2-5.4Z" />
          <path class="cls-3" d="M1032.3,1175.1v119.8h-14.6v-119.8h14.6Z" />
          <path class="cls-3"
            d="M1055.7,1324.3c3.3,0,6.4-.6,9.3-1.9,2.9-1.3,5.5-3,7.7-5.2s3.9-4.7,5.2-7.7c1.3-2.9,1.9-6.1,1.9-9.3v-82.8h14.6v62.9h10.6v14.6h-10.6v5.3c0,5.3-1,10.3-3.1,15-2.1,4.7-4.8,8.8-8.4,12.3-3.5,3.5-7.6,6.3-12.3,8.4-4.7,2.1-9.7,3.1-15,3.1h-5.3v-14.6h5.3ZM1082.4,1198.9c1.4-1.4,2.9-2,4.7-2s3.3.7,4.7,2c1.4,1.4,2,2.9,2,4.7s-.7,3.3-2,4.7-2.9,2-4.7,2-3.3-.7-4.7-2c-1.4-1.4-2-2.9-2-4.7s.7-3.3,2-4.7Z" />
          <path class="cls-3"
            d="M1099.3,1282.3c1.4-1.4,3.3-2,5.7-2h35.2v14.6h-35.2c-2.5,0-4.4-.7-5.7-2.1-1.4-1.4-2-3.1-2-5.1s.7-4,2-5.4Z" />
          <path class="cls-3"
            d="M1212.4,1182.1l-36,35.4c5.2.4,10,1.6,14.4,3.6,4.4,2.1,8.3,4.8,11.5,8.3s5.8,7.5,7.7,12c1.8,4.5,2.7,9.4,2.7,14.5v16.7c0,7.6-1.6,13.2-4.8,16.8-3.2,3.6-8.2,5.4-15.2,5.4h-52.5c-2.5,0-4.4-.7-5.7-2.1-1.4-1.4-2-3.1-2-5.1s.7-4,2-5.4,3.3-2,5.7-2h52.2c2.3,0,3.9-.8,4.6-2.3s1.1-3.9,1.1-7.2v-14.8c0-3.3-.7-6.4-2.2-9.3-1.5-2.9-3.4-5.5-5.9-7.8-2.5-2.2-5.4-4-8.7-5.2s-6.9-1.9-10.7-1.9-8,.9-12.5,2.8l-10.8-8.6,54.8-54.1,10.2,10.2Z" />
          <path class="cls-3"
            d="M1204.4,1324.3c3.3,0,6.4-.6,9.3-1.9,2.9-1.3,5.5-3,7.7-5.2s3.9-4.7,5.2-7.7c1.3-2.9,1.9-6.1,1.9-9.3v-82.8h14.6v62.9h10.6v14.6h-10.6v5.3c0,5.3-1,10.3-3.1,15-2.1,4.7-4.8,8.8-8.4,12.3-3.5,3.5-7.6,6.3-12.3,8.4-4.7,2.1-9.7,3.1-15,3.1h-5.3v-14.6h5.3Z" />
          <path class="cls-3"
            d="M1248.1,1282.3c1.4-1.4,3.3-2,5.7-2s5.7-.8,7-2.5c1.2-1.6,1.8-4,1.8-7v-14.6c0-5.3.9-10.3,2.6-15,1.8-4.7,4.1-8.8,7.1-12.3,3-3.5,6.6-6.3,10.7-8.4,4.1-2.1,8.5-3.1,13-3.1s8.9,1,13,3.1c4.1,2.1,7.7,4.8,10.7,8.4,3,3.5,5.4,7.6,7.1,12.3,1.8,4.7,2.6,9.7,2.6,15s-.9,10.3-2.6,15c-1.8,4.7-4.1,8.8-7.1,12.3-3,3.5-6.6,6.3-10.7,8.4-4.1,2.1-8.5,3.1-13,3.1s-8-.8-11.7-2.4c-3.7-1.6-7-3.8-10-6.8-3.3,6.1-10.2,9.2-20.6,9.2s-4.4-.7-5.7-2.1c-1.4-1.4-2-3.1-2-5.1s.7-4,2-5.4ZM1278.7,1265.5c1,2.9,2.4,5.5,4.1,7.7,1.7,2.2,3.7,3.9,6,5.2,2.3,1.3,4.7,1.9,7.3,1.9s5-.6,7.3-1.9c2.3-1.3,4.3-3,6-5.2,1.7-2.2,3.1-4.7,4.1-7.7,1-2.9,1.5-6.1,1.5-9.3s-.5-6.4-1.5-9.3c-1-2.9-2.4-5.5-4.1-7.7-1.7-2.2-3.7-3.9-6-5.2-2.3-1.3-4.7-1.9-7.3-1.9s-5,.6-7.3,1.9c-2.3,1.3-4.3,3-6,5.2-1.7,2.2-3.1,4.7-4.1,7.7-1,2.9-1.5,6.1-1.5,9.3s.5,6.4,1.5,9.3Z" />
        </g>
      </g>
    </g>
  </g>
</svg>